# xmcd
#
# Track frame offsets:
#	150
#	26827
#	58897
#	86556
#	111181
#	130907
#	167763
#	191393
#	210884
#	247759
#	283736
#	317521
#
# Disc length: 4752 seconds
#
# Revision: 9
# Processed by: cddbd v1.5.2PL0 Copyright (c) Steve Scherf et al.
# Submitted via: audiograbber 1.83.01
#
DISCID=a0128e0c
DTITLE=Ken Follett - Eisfieber
DYEAR=2005
DGENRE=Hörbuch
TTITLE0=15 - Eisfieber CD02
TTITLE1=16 - Eisfieber CD02
TTITLE2=17 - Eisfieber CD02
TTITLE3=18 - Eisfieber CD02
TTITLE4=19 - Eisfieber CD02
TTITLE5=20 - Eisfieber CD02
TTITLE6=21 - Eisfieber CD02
TTITLE7=22 - Eisfieber CD02
TTITLE8=23 - Eisfieber CD02
TTITLE9=24 - Eisfieber CD02
TTITLE10=25 - Eisfieber CD02
TTITLE11=26 - Eisfieber CD02
EXTD=
EXTT0=
EXTT1=
EXTT2=
EXTT3=
EXTT4=
EXTT5=
EXTT6=
EXTT7=
EXTT8=
EXTT9=
EXTT10=
EXTT11=
PLAYORDER=
